<svg xmlns="http://www.w3.org/2000/svg" viewBox="0 0 350.99 185.09"><defs><style>.cls-1{fill:#202020;}.cls-2{fill:#bf5109;}</style></defs><g id="Layer_2" data-name="Layer 2"><g id="Layer_1-2" data-name="Layer 1"><path d="M222.09,168c-1.21,1.44-3.19,1.51-4.23,1.51h-2.43v10.83h-1.65V156.61h3.71c1.44,0,3.06-.07,4.27.94s1.28,2.59,1.28,4.34v2.7A4.72,4.72,0,0,1,222.09,168Zm-.67-5.49c0-2.12,0-3.26-1-4a3.57,3.57,0,0,0-2.53-.57H215.4v10.16h2.69a3.3,3.3,0,0,0,2.56-.84,3.81,3.81,0,0,0,.77-2.72Z"/><path d="M234.17,180.36V168.62H228v11.74h-1.61V156.61H228v10.56h6.13V156.61h1.65v23.75Z"/><path d="M248.49,178.61a4.52,4.52,0,0,1-4.17,2.06,5,5,0,0,1-3.7-1.45,5.89,5.89,0,0,1-1-3.94V161.89a9.15,9.15,0,0,1,.37-2.69,4.42,4.42,0,0,1,4.54-2.86,5.08,5.08,0,0,1,3,.88c1.68,1.28,1.68,3.33,1.68,5.18v13.12A5.47,5.47,0,0,1,248.49,178.61Zm-.87-15.3a8.68,8.68,0,0,0-.57-4,2.38,2.38,0,0,0-1.08-1.11,3.38,3.38,0,0,0-1.58-.37,3.33,3.33,0,0,0-1.82.51,3.7,3.7,0,0,0-1.38,3.23v13.08a8.7,8.7,0,0,0,.27,2.7,3,3,0,0,0,3,1.85,3,3,0,0,0,1.85-.58c1.28-.9,1.35-2.35,1.35-3.73Z"/><path d="M257.13,158.09v22.27h-1.68V158.09h-4.14v-1.48h10v1.48Z"/><path d="M272.34,178.61a4.55,4.55,0,0,1-4.18,2.06,5,5,0,0,1-3.7-1.45,5.89,5.89,0,0,1-1-3.94V161.89a9.15,9.15,0,0,1,.37-2.69,4.42,4.42,0,0,1,4.54-2.86,5.06,5.06,0,0,1,3,.88c1.68,1.28,1.68,3.33,1.68,5.18v13.12A5.55,5.55,0,0,1,272.34,178.61Zm-.88-15.3a8.68,8.68,0,0,0-.57-4,2.28,2.28,0,0,0-1.08-1.11,3.53,3.53,0,0,0-3.4.14,3.71,3.71,0,0,0-1.37,3.23v13.08a8.78,8.78,0,0,0,.26,2.7,3,3,0,0,0,3,1.85,3,3,0,0,0,1.86-.58c1.27-.9,1.34-2.35,1.34-3.73Z"/><path d="M285.22,180.36v-1.88a4.94,4.94,0,0,1-.61.77,4.56,4.56,0,0,1-3.36,1.45,4.16,4.16,0,0,1-3.57-1.82c-.74-1.11-.91-2.15-.91-4.64V161.76c0-1.38.1-3,1.14-4a3.21,3.21,0,0,1,.78-.64,5.13,5.13,0,0,1,3-.74c3,0,4,1.65,4.4,2.86a8.19,8.19,0,0,1,.17,1.75v3.3h-1.58v-2.46a7,7,0,0,0-.34-2.52,2.74,2.74,0,0,0-2.76-1.52,3.29,3.29,0,0,0-2.08.64c-1.28,1.08-1.14,2.66-1.14,4.14v11.24c0,1.95,0,3,.47,3.87a2.83,2.83,0,0,0,2.59,1.61,2.8,2.8,0,0,0,1.81-.7,4.62,4.62,0,0,0,1.55-3.77V171h-3.5v-1.45h5.15v10.83Z"/><path d="M298.8,180.36l-4.34-11.57h-2.59v11.57h-1.65V156.61h4.61a5.18,5.18,0,0,1,3.36.84,4,4,0,0,1,1.32,3.3v3.7a7.5,7.5,0,0,1-.14,1.51,3.7,3.7,0,0,1-2.28,2.46,4.07,4.07,0,0,1-.88.27l4.34,11.67Zm-1-19.17c0-1-.07-2.26-1.08-2.83A3.44,3.44,0,0,0,295,158h-3.09v9.35h3a4.35,4.35,0,0,0,1.41-.21,2.16,2.16,0,0,0,1.45-2.32Z"/><path d="M310.84,180.36l-1.21-7.23h-5l-1.25,7.23h-1.75L306,156.48h2.29l4.31,23.88Zm-3.37-19.81c-.13-.74-.23-1.48-.33-2.22-.07.7-.17,1.38-.27,2l-1.95,11.2h4.4Z"/><path d="M323.72,168c-1.21,1.44-3.2,1.51-4.24,1.51h-2.42v10.83h-1.65V156.61h3.7c1.45,0,3.06-.07,4.27.94s1.28,2.59,1.28,4.34v2.7A4.72,4.72,0,0,1,323.72,168Zm-.67-5.49c0-2.12,0-3.26-1-4a3.54,3.54,0,0,0-2.52-.57H317v10.16h2.69a3.29,3.29,0,0,0,2.56-.84,3.83,3.83,0,0,0,.78-2.72Z"/><path d="M335.79,180.36V168.62h-6.12v11.74h-1.62V156.61h1.62v10.56h6.12V156.61h1.65v23.75Z"/><path d="M346.15,169.87v10.49h-1.62V169.87l-4.68-13.26h1.75l3.81,11.17,3.76-11.17H351Z"/><path class="cls-1" d="M16,31.06a16,16,0,0,1-1.69-2.13,14.73,14.73,0,0,0,2.46,3.44,33.93,33.93,0,0,0,3.6,3.26l-2.8-2.79C17,32.31,16.52,31.68,16,31.06Z"/><polygon class="cls-1" points="20.38 35.67 20.42 35.7 20.34 35.63 20.38 35.67"/><path class="cls-1" d="M17,136.24l-.26-.16A.55.55,0,0,0,17,136.24Z"/><path class="cls-1" d="M157.42,91.11a26.63,26.63,0,0,0-4.18,2.5v.53c-3.13,2-.89.23-4,2.12-.38-.23,2.59-2,5-3.55-2.21,1.36-4.69,2.46-5.43,3.35-2.29,1.11,0-.52-2.72.84a46.39,46.39,0,0,1-6.58,3.77v-.07c-5.64,2.47-8.21,4.68-13.49,6.73l.51-.36c-1.91.61-5.36,2.51-8.77,3.69,1-.33,1.89-.44-.08.45-3.89,1.42-6.44,2.65-9.35,3.5L105.72,116c-6.7,2.5-23.52,8.8-40.64,11.89a97.29,97.29,0,0,1-23.95,1.73,38.28,38.28,0,0,1-14.43-3.55l.41.16a20.66,20.66,0,0,1-10.45-10.75A22.36,22.36,0,0,1,15.13,111a10.91,10.91,0,0,1-.51-2.37,16.13,16.13,0,0,1-.25-2.44,31.13,31.13,0,0,1,1.22-10.31c2-7,6.12-13.85,10.62-19.69A129.45,129.45,0,0,1,39.67,61.53c2.78-2.07,6.38-5.2,9.3-7.34-1.67,1.12-1.29.51,0-.45,4.39-3.37,4.55-3.48,4.65-3.68A5.68,5.68,0,0,1,54.8,49c3.1.62,6.2,1.16,9.32,1.63a188.35,188.35,0,0,0,31.17,1.9c.49.13-.08.13-.69.19a166.14,166.14,0,0,0,18-1.46,11,11,0,0,1,2.62.11c-.5-.09,7.6-1.07,16.07-3.86a48.32,48.32,0,0,0,11.9-5.58c.83-.58,1.59-1,2.26-1.59l1.74-1.54c.5-.47.84-.72,1.18-1.11l.56-.65,0-.93a22.34,22.34,0,0,0,2.9-4.57,13.18,13.18,0,0,1,.95-1.51,3.85,3.85,0,0,0,.77-1.43c.13-.41.28-1,.45-1.73a8.55,8.55,0,0,0,.27-2.95c-.13-1.81-.95-6.05-3.81-8.88-.75-.64-1.47-1.31-2.21-1.91s-1.66-1-2.45-1.35a21.51,21.51,0,0,0-4.05-1.17c.08-.2-4.66-.81-4.35-1.05a10.61,10.61,0,0,1-2.44.07,20,20,0,0,0-3,0c-.7.13.52.12,1.05.25l-2.23.1-2.16.18c-1.7-.05-2.14-.28-.3-.43a127.6,127.6,0,0,0-14.66,1.62c-6.46,1-14,2.63-21.5,4.52s-14.89,4.06-21.3,6.36l-2.41.92c-.8.32-1.57.63-2.61,1.13l-.71.34-.51.28-1,.57L61.8,26.44c-2.19,1.3-3.94,2.41-5.15,3.21,1.42-.53,4.37-2.57,5.81-2.81-2.49,1.8-3.91,2.24-4.9,3.2-1.35,0-5.37,3.17-7.75,4-6.49-1.8-14.22-4.5-19.94-7.8l-.63-.59A15.89,15.89,0,0,1,28,24.38l-1.09-1.32a4.52,4.52,0,0,1-.37-.6l-.48-.4-2,.35c-1.11.19-2.73.34-4.31.64s-3,.88-3.69,2.41a5.72,5.72,0,0,0,0,3.31,11.3,11.3,0,0,0,1,2.14,10.26,10.26,0,0,0,1.7,2.38l-.42.06s2.59,2.17,2.6,2.06c3.06,2.36,4.74,2.7,4.36,2.88A21.45,21.45,0,0,1,23.08,37l-2.15-1.48c3.12,2.22.82.87-.51.18,1.31.9,2.6,1.91,3.62,2.56.7.24-.4-.35-.86-.74l6.39,3.08c3.3,1.54,0,.6,3.89,2.23,1.11.44,2.23.85,3.34,1.25l-1,.81c-5.3,4.48-7.27,7.22-10.22,9.75.42-.4,1.7-1.29.49.06-.51-.08-3.22,3.58-4.1,4-1.21,1.29-5.07,5.62-3.37,4.49-.87.54-4.24,4.52-2.46,2a38.46,38.46,0,0,0-2.91,3.74l.74-.87.76-.84c-3.59,4.74-5.7,7.35-7.31,11L8,77.26l.68-.9c-1.88,3.1-3.18,5.89-4.27,7l.76-1.75c.37-.89.8-1.73.8-1.73A47.62,47.62,0,0,0,.81,94.22l.51-1.84A58.25,58.25,0,0,0,0,102a39.55,39.55,0,0,0,2.23,15l.6,1.9.87,1.83,1.74,3.56,2.2,3.15,1.06,1.47c.4.44.82.85,1.22,1.26a25.47,25.47,0,0,0,4.43,3.92,32.9,32.9,0,0,0,3.12,2c0,.06-2.14-2.07-2.14-2.07l2.28,1.49,2.42,1.16c-.45-.28-2.33-.15-3.08-.42a54.76,54.76,0,0,0,5.49,2.93l4.24,1.61c1.53.46,3.2.84,4.94,1.28a80.88,80.88,0,0,0,23.3,1c16-1.37,30.93-5.9,35.45-7.06,3.67-.89.83.41.81.49,4.35-1.5,1.78-1,5.51-2.13,1-.26-.11.37-.66.62,1.6-.59,3.16-1,3.22-1.18-2.08.54-1.37-.22-2.33-.24l4.76-1.54-.11.37c1.06-.36,2.39-1.76,7-3.27,7.8-2.75,16-6.3,23.61-9.7a15.18,15.18,0,0,1-3.14,1.86c1-.45,2.55-1.18,3.54-1.49-2,.55,3.07-1.68,1.59-1.14,5.19-3.24,12.53-6.14,17-9.2,0-.41,1.16-4.42,2-8.38s1.43-7.87,1.2-8.21C155.84,92.1,157,91.29,157.42,91.11ZM73,37.23c.72-.29,1.44-.6,2.26-.89,1.6-.6,3.33-1.19,5.1-1.76,3.54-1.16,7.3-2.25,11.06-3.27,15.07-4.17,30.26-6.52,35.7-6.66a35.5,35.5,0,0,1,4.57-.49c.76,0,1.58-.08,2.32,0l1.13,0a8,8,0,0,1,.86,0,5.84,5.84,0,0,1,1.46.26,2,2,0,0,1,1,.64l-.2-.07c.33.29.29,1.29-.42,2.18l-.29.35c0,.08-.55.47-.81.71A15.59,15.59,0,0,1,134.48,30c-.88.55-1.91,1-2.93,1.56s-2.15,1-3.37,1.34c-9.5,3.35-20.7,4.15-24.33,4.54h1c-6.48.77-5.64.12-10.78.09.7.58-4.93,1-7.09.92l.09-.12c-3.16,0-10.28.19-15.6-.3.25-.15.52-.31.71-.4Z"/><path class="cls-1" d="M150.18,46.1a1.29,1.29,0,0,0,1-.42A1.55,1.55,0,0,0,150.18,46.1Z"/><polygon class="cls-1" points="150.17 46.1 150.17 46.11 150.18 46.1 150.17 46.1"/><path class="cls-1" d="M155.36,50.33c-1.44-1.93-3.15-4-4.52-4l-.15-.21-.27.29c-.45.22-.41.58-.56.38l.51-.41c-.41.26-.25-.06-.2-.29a1.85,1.85,0,0,1-.51.28c0,.13.12,0,.21,0-.14.23-.21.65-.51.78-.36.32-.31-.27-.73.11-1.07,1-2.07,1.9-3,2.9a7.15,7.15,0,0,0-1.4-1,11.28,11.28,0,0,0-3.77-1.36,16.4,16.4,0,0,0-5.68.22,29.44,29.44,0,0,0-7.93,3c-.15,0,0-.1.09-.21-1.36.84-2.57,1.5-3.71,2.33a1.16,1.16,0,0,1-.71,0,26.31,26.31,0,0,1-3,2.22l-2.17,1.56c-.6.44-1,.73-1,.74l.2.42c-1.17.88-.66-.16-1.66.76,0,.82-1.81,1.34-1.95,1.9,0,0-.55.36-.65.17.07.4-.47.5-.73.84,0,.17.15,0,.31,0l-.66.7c-.35.16-.56.07-.27-.23A72.76,72.76,0,0,0,104.34,68c-.68.7-1.37,1.41-2,2.23a18.55,18.55,0,0,0-2.13,3c-.75,1.45-1.2,2.33-1.5,3,.39-.19.61-1,1.11-1-.1.68-.54.85-.46,1.24-.67-.06-.85,1.34-1.67,1.62l.22.36-.36.28c-.57,1.74-.59,2-.66,2.18A8,8,0,0,0,96.08,83c-.48,2.36,0,3.74,0,5.29,0-.24.14-.86.29-.15-.14.07,0,.55.09,1s.35,1,.25,1.22c.15.73,1.1,2.77,1.15,1.9-.07.47.87,2.1.12,1.24A5.21,5.21,0,0,0,98.88,95a7.82,7.82,0,0,1-.36-.71c1.24,1.67,1.77,2.58,2.9,3.12l-.38-.59c.75.74,1.69,1.32,1.82,2l-1.11-.67A12.09,12.09,0,0,0,104,99.51a8.89,8.89,0,0,0,2.22.81l-.55-.23a20.23,20.23,0,0,0,7.08.69,14.9,14.9,0,0,0,5.73-1.55l-.72-.14,1.11-.58c-.13,0-.29,1.17-.44,1.1a43.48,43.48,0,0,0,8.46-3.45c3.36-1.72,6.39-3.69,7.38-4.18.83-.33.41.34.43.39a1.74,1.74,0,0,0,.46-.48c.05.11.09.22.14.35a17.45,17.45,0,0,0,2.08,3.26,19,19,0,0,0,4.78,4c.49.45-.13.51-.17.55.78.25.46-.15,1.06.17.14.13-.14.22-.25.21.28.1.49.32.57.19-.29-.27,0-.57,0-.87,0,0,.75.38.75.36l-.13.22c.17.07.68-.49,1.37-.13a16.93,16.93,0,0,0,3.8.91c-.05.15-.3.23-.58.27.17,0,.42,0,.56.14-.27-.29.53-.13.31-.26.94-.55,2.05.15,2.8-.31,0-.28.47-2.68.76-5.08s.47-4.82.46-5.15a.77.77,0,0,1,.37.07c-.05-.15-.36-.23-.53-.14v.36c-.39.13-.1-.21-.47-.18,0-.29.32-.36.61-.39-.27,0-.54-.24-.64.08-.25-.12,0-.36-.28-.47-.2.08-.51.39-.73.2v-.06c-.52-.35-.87.37-1.35,0l.07-.1c-.17-.16-.49,0-.73-.25.06.08.09.3-.08.3-.28-.25-.56-.09-.71-.38l-.26.21a8,8,0,0,1-2.24-1,4.6,4.6,0,0,1-1.43-1.9l.06,0a10.05,10.05,0,0,1-.64-3.23,7.16,7.16,0,0,0,1.72-1.51c-.11-.2-.76-1.82-1.5-3.68a4.83,4.83,0,0,0,.48-1c-.16.18-.34.07-.29-.1.32-1.19-.18-.13,0-1.38,0-1.49,2.38-6.79,3.27-7.85-.07-.83.63-1.49.71-2.24l.06.11c.19-.78,2.69-4.28,3.08-5.06l-.11.07c.21-.78.54-.43,1-.84-.43-.2-.27-.89-.15-1.12l.08.07a12.53,12.53,0,0,1,.68-1.8l.18.18a4.6,4.6,0,0,1,1-1.53c.63-.57,1.79-1.17,2.32-2.11l1,.12,0-.12S156.8,52.27,155.36,50.33ZM131.91,79.92c-1.34.9-4.57,3.22-7.84,5.17a39.19,39.19,0,0,1-7.81,3.72l.09-.07a16.34,16.34,0,0,1-3.32.73,6.27,6.27,0,0,1-2.84-.28,3.87,3.87,0,0,1-1-.54,9.13,9.13,0,0,1-.94-.94,2.06,2.06,0,0,1-.51-1c.29-.23.31-.74.58-1.26-.22.25-.37.1-.28-.13.29-.82.33-.93.26-1s-.14-.1.28-1.15a30.53,30.53,0,0,1,1.47-3.12l.58-1.14a4.4,4.4,0,0,1,.28-.41,18.35,18.35,0,0,1,1.38-1.6,48.52,48.52,0,0,1,6-5.25c.77-1.21,2.31-2.06,3.2-3.11l0,.16a42,42,0,0,1,4.49-3.3c2-1.35,4.11-2.53,4.77-3l-.21.06c1.09-.93,1.15-.43,2.17-.82-.35-.35.58-1.11,1-1.34l0,.1a16,16,0,0,1,2.68-1.64l0,.25a3.94,3.94,0,0,1,2.12-.62.75.75,0,0,1,.2.34l-.65.83.07.12,1.17.17c-.25.18-.41-.16-.63.41.42.55-.64,1.09-.45,1.48,0,0-.23.29-.4.18.26.26-.1.38-.12.63s.12,0,.24,0l-.13.53c-.19.14-.39.1-.33-.12-.36.61-1.33,2.41-2.17,4.31a29.44,29.44,0,0,0-1.66,4.7c.31-.12.29-.63.74-.67.09.45-.27.54-.09.78-.63,0-.38.84-1.07,1l.31.21-.26.14c-.13,1.86.05.44-.41,2-.16.94.23,1.47,0,2,0-.07.26-.24.31,0-.31,0,.11.69-.22.75,0,.18-.08.63,0,.79a2.87,2.87,0,0,1-.7.35Z"/><path class="cls-1" d="M190.58,46c-.19-.19-.29-.16-.39-.14C190.39,46,190.52,46.06,190.58,46Z"/><polygon class="cls-1" points="190.19 45.83 190.19 45.83 190.19 45.83 190.19 45.83"/><path class="cls-1" d="M192.46,71.87a3,3,0,0,1,.69-.41c-.16-.08-.76.27-1,.55l.16.32c-.59.59-.28,0-.91.44-.2-.21.34-.69.85-1.1-.49.32-1.08.49-1.08.89-.5.22-.16-.32-.75,0-.32.34-.64.92-1.16,1.09l0,0c-1.2.5-1.3,1.48-2.4,1.9l0-.15c-.42.09-.94.74-1.63,1,.2-.06.47,0,.13.28-.78.32-1.14.78-1.77.92l-.32.55c-1.2.76-4.11,2.72-7.05,4.29a31.43,31.43,0,0,1-7,2.91l.08-.06a10.79,10.79,0,0,1-5.84.2,5.84,5.84,0,0,1-2.18-1.3,8.81,8.81,0,0,1-1-1,6.79,6.79,0,0,1-.5-.63c.13-.35,0-.76,0-1.19-.07.24-.28.21-.3,0-.09-1.37-.26,0-.4-1.53a13.24,13.24,0,0,1,1.26-5.94,17.6,17.6,0,0,1,1.74-3.21l.21-.3.32-.49.07-.1.33-.43c.21-.27.47-.53.62-.69.3-1.08,1.49-1.94,2.1-2.92v.15a24.34,24.34,0,0,1,3.5-3.18c1.63-1.3,3.37-2.42,3.91-2.85l-.19.06c.87-.88,1-.4,1.84-.75-.34-.33.41-1.07.74-1.26l0,.1a12,12,0,0,1,2.23-1.54l0,.25A3.93,3.93,0,0,1,180,56a1.21,1.21,0,0,1,.6.16,2.45,2.45,0,0,1-.63.71c-.22,0-.42-.3-.46-.33,0,.21.23.27.13.36s-.2-.16-.23-.2-.12,0,0,.14.44.28.67.41l-.13.12-.2-.16s.5.49.28.55-.37.47-.59.68a.66.66,0,0,1-.2-.3s0,.1-.14.07c.26.09.07.2.2.22.38.52-.25.42,0,.81.43.35,7.69,5.67,8.25,6,0,0-.07.06-.13,0,.14.07.25,0,.21,0l-.29-.21c0-.15.19.1.23,0,.24.16.24.27.21.36s.29,0,0-.19c.14,0,.29.21.44.21,0-.1-.22-.33,0-.29l0,0c.35,0-.21-.46.13-.41l.07.07c.17,0,.05-.17.26-.14-.07,0-.25-.12-.25-.19.22,0,.12-.15.35-.09l-.18-.23c.3-.28.87-1.85,1.16-2.15l0,0a9.21,9.21,0,0,0,1.33-2.23c.27.12.31,0,.44-.05-.13,0-.25-.2-.22-.22.27-.19-.12-.15,0-.46s1.38-1.19,1.78-1.23c-.14-.43.23-.34.19-.66l0,.09c0-.28,1.12-.61,1.2-.85l-.05,0c0-.32.25.06.45.08a1,1,0,0,1-.29-.73l.06.08c0-.12,0-.57.06-.71l.14.21c-.05-.3.22-.36.28-.44.23,0,.75.12.79-.33l.56.49,0-.08-2.46-3.88a34,34,0,0,0-3.51-4.83l-.13-.22-.06.09c-.17,0,0,.24-.18,0l.14-.06c-.13,0-.14-.16-.18-.3a.27.27,0,0,1-.19,0c0,.09.08.08.12.11s.06.36-.06.31-.24-.33-.37-.27a6.4,6.4,0,0,0-2,1,.15.15,0,0,1-.07-.13c-.12.22-.31.31-.4.52a1.28,1.28,0,0,1-.31-.24s0,.15-.12.26l-.13-.09a12.1,12.1,0,0,0-5.81-1.91,16.82,16.82,0,0,0-4.86.4,25.17,25.17,0,0,0-7.32,3c-.15,0,0-.09.07-.21-1.24.85-2.36,1.52-3.36,2.36a1.14,1.14,0,0,1-.68,0A28.94,28.94,0,0,1,162,53.18l-2.82,2.45.24.4c-1,.95-.65-.11-1.5.87.09.81-1.56,1.51-1.62,2.1,0,0-.48.42-.6.26.12.39-.39.57-.6,1,0,.18.16,0,.31,0l-.52.83c-.33.23-.55.18-.32-.17a22.19,22.19,0,0,0-2.25,3l.13-.22-.09.14-.18.27-.38.57c-.23.39-.47.79-.72,1.19-.46.82-.9,1.67-1.29,2.55a27.08,27.08,0,0,0-2.48,9c.29-.38.28-1.3.74-1.58.11.81-.27,1.12-.06,1.5-.65.25-.33,1.72-.93,2.37l.35.24-.22.43c.26,1.91.36,2.13.36,2.3a10.84,10.84,0,0,0,.28,2.11,8.47,8.47,0,0,0,1.09,2.42,16.69,16.69,0,0,1,1,1.7c-.1-.17-.16-.7.21-.25-.22.25,1,1.25.88,1.52.31.36,1.22,1.59,1.23.91-.05.33.94,1.45.19.94a5.29,5.29,0,0,0,.94,1l-.36-.54c1.19,1.13,1.78,2,2.93,2.29l-.44-.49c.87.54,1.59,1,1.77,1.51,0,0-1-.43-1-.43a9.9,9.9,0,0,0,3.91,1.51l-.47-.17a24.15,24.15,0,0,0,6.1.44,13.48,13.48,0,0,0,5.2-1.21l-.64-.19,1-.5c-.12,0-.3,1.14-.44,1.06a39.74,39.74,0,0,0,7.87-2.71c3.13-1.43,6-3.1,6.88-3.51s.38.37.4.42c.78-.61.19-.51.91-.92.23-.07.1.24,0,.35.29-.22.64-.3.58-.45-.45.14-.49-.3-.79-.42l.92-.53.09.24c.21-.12.14-.9,1.07-1.34,1.52-.86,3-2,4.45-2.93.07.14-.18.42-.43.7a2.12,2.12,0,0,1,.7-.39c-.49,0,.49-.57.16-.47.66-1.23,2.3-1.73,2.93-2.71C196.4,81,192.84,72.41,192.46,71.87Z"/><path class="cls-1" d="M206,48.62c-.32.05-.46.31-.62.55A.83.83,0,0,0,206,48.62Z"/><polygon class="cls-1" points="205.39 49.17 205.39 49.18 205.39 49.17 205.39 49.17"/><path class="cls-1" d="M216,52.9s-7.6-4.36-9.91-3.72l-.22-.11-.09.28c-.25.27,0,.53-.27.41l.22-.42c-.21.29-.23,0-.31-.16a1.11,1.11,0,0,1-.29.32c.07.1.12,0,.2,0,0,.21.12.54-.08.71s-.39-.14-.58.24a58.19,58.19,0,0,0-3,5.88c-.12,0-.09,0-.11-.12-.16.66-.44,1.19-.58,1.8a.74.74,0,0,1-.45.1c.23,0-1.13,3.2-1.2,3.23l.4.21c-.26.61-.56,0-.7.58.5.47-.47.91-.23,1.24-.05,0-.19.24-.36.15.28.22,0,.31,0,.52s.11,0,.23,0l-.06.44c-.17.12-.38.08-.34-.11a65.28,65.28,0,0,0-3.36,7.05c.31,0,.29-.46.73-.43.09.39-.26.41-.09.63-.62-.13-.42.59-1.1.58l.29.22-.26.06c-.23,1.45,0,.37-.54,1.49-.24.69.07,1.2-.26,1.5,0,0,.29-.12.3.09-.3-.09,0,.55-.32.51,0,.19-.31.72.15.7-.23,0-.52.47-.56.1-.08.16-.21.3-.18.46l.2-.17c-.18.58-.61.76-.42,1.27l.24-.14c-.12.34-.21.64-.65.61l0-.4A3.42,3.42,0,0,0,192,79.9l.09-.16c.12.75-.89,4-.65,4.72l.41-.13.05.58c0-.06-.87-.64-.75-.65-.41,1-2.43,6.31-3,7.15-.32.3-.5-.14-.54-.16-.09.5.23.33,0,.7-.09.09-.22-.12-.23-.2,0,.19-.21.3-.08.37.2-.16.53.09.8.1l-.24.48-.22-.12c-.06.11.51.56.17,1-.45.78-.76,1.7-1.17,2.51-.13-.08-.14-.29-.14-.49-.06.1-.1.29-.24.35.33-.1,0,.41.18.3.31.85-.55,1.41-.4,2.11.5.27,8.28,5,8.88,5.22-.08.16-.16.32-.23.35.16,0,.37-.28.36-.49l-.31-.17c.06-.45.23,0,.38-.41.28.1.17.48.06.81.16-.27.48-.47.24-.71.22-.22.31.17.56-.11,0-.26-.11-.68.16-.87l.05,0c.55-.52,0-1.16.55-1.62l.06.1c.24-.14.21-.64.54-.94-.1.08-.34.09-.27-.15.35-.36.31-.72.66-.95l-.13-.41c.69-1.48,2.88-7.55,3.49-9.07l0,.07c.86-2.34,2.92-7,3.58-9.56.42-.26.58-.79.81-1.14-.2.17-.35,0-.27-.14.54-1.16-.14-.16.26-1.38a48.32,48.32,0,0,1,3.6-7.64c-.09-.81.54-1.5.58-2.23l.06.1c.15-.74,2.17-4.44,2.37-5.29l-.1.09c.06-.79.44-.52.81-1-.46-.11-.45-.8-.39-1l.09,0a14.39,14.39,0,0,1,.23-1.88l.22.12a4.87,4.87,0,0,1,.56-1.75A7.75,7.75,0,0,0,215,53.41l1-.39Z"/><polygon class="cls-1" points="248.96 47.11 248.95 47.1 248.97 47.12 248.96 47.11"/><path class="cls-1" d="M205.5,94.57l.17.1c-.21-.19-.43-.36-.64-.58Z"/><path class="cls-1" d="M253.63,50.2a7.74,7.74,0,0,0-4-2.31,8,8,0,0,0-.68-.77,8.27,8.27,0,0,0,.45.75l-.25,0-.54-.5c-.14-.15-.26-.24-.38-.35l0,0a2.15,2.15,0,0,1,.36.33c-.85-.83-.11-.4.31-.19-.32-.37-.74-.7-1-1-.26-.07.08.19.2.35-.58-.36-1.47-.66-2.14-1.12-1.13-.58.13-.43-1.27-1a14.45,14.45,0,0,0-5.51-.95,20.39,20.39,0,0,0-4.63.68,27.86,27.86,0,0,0-7.28,3.24c-.15,0,0-.1.07-.22-1.26.88-2.36,1.59-3.39,2.45a1.12,1.12,0,0,1-.69,0,26.63,26.63,0,0,1-2.71,2.34l-1.94,1.67c-.53.46-.89.78-.92.79l.24.39c-1,1-.66-.11-1.52.86.08.81-1.59,1.45-1.66,2,0,0-.49.4-.61.23.12.39-.4.53-.61.9,0,.17.15,0,.3,0l-.54.77c-.34.2-.55.14-.31-.19l-.45.46a9.34,9.34,0,0,0-.81,1l-1.08,1.38c-.83,1.07-1.85,2.43-2.83,3.84a44.09,44.09,0,0,0-4.29,7.39c.39-.2.61-1,1.12-1.14-.11.75-.54.92-.46,1.31-.7,0-.8,1.42-1.6,1.71l.24.33-.35.27c-.42,1.7-.42,1.92-.48,2a5.81,5.81,0,0,0-.61,1.8,7.67,7.67,0,0,0-.16,2.36,7,7,0,0,1-.07,1.78c0-.21.26-.63.31-.09-.31.1.26,1.53,0,1.82,0,.53.41,2.52.67,1.77-.14.36.22,2.12-.22,1.14a4,4,0,0,0,.58,1.57l-.22-.79c.44,1,.75,1.74,1.09,2.44a5.27,5.27,0,0,0,1.42,1.58l-.36-.73a11.09,11.09,0,0,1,1.67,2.39l-.42-.26a9.72,9.72,0,0,0,3.77,2.14l-.53-.26a27,27,0,0,0,2.84.69,15.09,15.09,0,0,0,4.15.16,16.54,16.54,0,0,0,3.77-.81c-2.37,4.2-4.85,8.71-5.61,10.33.43-.25.75-1.23,1.3-1.38-.2.88-.68,1.1-.64,1.55-.71,0-1,1.62-1.91,1.91l.2.39-.4.28c-1.47,3.58-.25.86-1.92,3.84-.87,1.77-.88,2.83-1.55,3.72.08-.15.47-.43.31.06-.31-.06-.44,1.31-.83,1.39-.2.46-1,1.87-.36,1.58-.32.15-1.07,1.39-.83.54a5.43,5.43,0,0,0-.6,1.17l.4-.5c-.72,1.49-1.42,2.14-1.57,3.28l.43-.47c-.43.89-.78,1.64-1.32,1.8l.35-1a22.78,22.78,0,0,0-1.59,3.67l.23-.42c-.41,1.75-4.29,10-4.46,11.69l.61-.52-.36,1.36c.08-.15-.65-1.06-.5-1.14-1.25,2.68-7.71,16.52-8.93,19.12-.61.94-.54,0-.59-.06-.44,1.28.08.67-.41,1.7-.19.26-.21-.16-.18-.34-.17.48-.46.86-.34.95.36-.52.62-.12,1-.25l-.64,1.32-.2-.16a4.25,4.25,0,0,1-.42,2.3c-1.14,2.16-2,4.67-3,6.92-.12-.1,0-.61.1-1.12a4.4,4.4,0,0,1-.5,1c.47-.45-.22,1,.05.64-.1,1.9-1.5,3.83-1.71,5.46.46.35,7.63,6.62,8.25,6.84a5.53,5.53,0,0,1-.49,1,3,3,0,0,0,.72-1.4l-.29-.21c.32-1.11.29-.17.7-1.23.29.05,0,1-.36,1.89.34-.75.85-1.43.68-1.85.4-.67.29.21.76-.61a6.6,6.6,0,0,1,.68-2.19l0,0c1-1.6.66-2.79,1.57-4.24l0,.21c.39-.49.62-1.67,1.19-2.6-.17.27-.46.43-.25-.18a28.28,28.28,0,0,1,1.36-2.67l.1-.91c.91-2,3-6.87,5.13-11.8l5.39-11.75,0,.17c2.77-6,9-18.19,12-24.47a21.9,21.9,0,0,0,2-3.09c-.4.49-.47.21-.24-.21,1.62-3-.06-.3,1.44-3.39,1.65-3.61,9.09-16.83,11-19.83.53-1.87,1.92-3.8,2.57-5.56v.21c.31-.68,1.29-2.49,2.45-4.6,1.29-1,2.55-2.06,3.77-3,.07.14-.15.45-.38.76a2.16,2.16,0,0,1,.68-.48c-.51.08.44-.62.12-.49.58-1.31,2.21-2,2.77-3.06-.12-.2-.92-1.73-1.85-3.48.48-1,.81-.88,1.5-2-.51,0,0-1.68.3-2.29l.08.07c.38-.9,1-3.15,1.73-4.57l.19.18a34.89,34.89,0,0,1,2.09-4.35c1.23-1.78,3.15-4.56,4.52-7L256.66,54l.09-.26A29,29,0,0,0,253.63,50.2Zm-6.26-4,.9.72,0,0C247.62,46.47,247.18,46.38,247.37,46.24ZM214,85.89c-.36-.1-.41-.26-.64-.54a4.8,4.8,0,0,1-.29-1.84,7,7,0,0,0,.62-1.6c-.17.25-.35.11-.28-.13.66-1.76-.2-.15.41-2a26.43,26.43,0,0,1,3.42-6.41c.87-1.3,1.85-2.59,2.68-3.67l1.17-1.47c.15-.18.37-.47.43-.52l.11,0c.42-1.11,1.77-2.06,2.46-3.08l0,.16a32.85,32.85,0,0,1,3.79-3.36c1.73-1.39,3.54-2.58,4.11-3.05l-.2.07c.92-.92,1-.45,1.93-.84-.35-.33.43-1.09.77-1.31l0,.09a15.11,15.11,0,0,1,2.36-1.68l.06.25a5.51,5.51,0,0,1,2.33-.81,3.91,3.91,0,0,1,1.43.29,6.59,6.59,0,0,0,1,.38,5.08,5.08,0,0,1-.16.85l.1,0,.59-.38c-2.58,4.18-4.87,8.32-7,12.57-.15.08-.07-.07,0-.24-.73,1.66-1.52,3-2.19,4.55a1.44,1.44,0,0,1-.67.46,29.62,29.62,0,0,1-1.91,4L229,79.42c-1,.76-2.11,1.57-3.23,2.31a32.13,32.13,0,0,1-6.88,3.72l.07-.08C217.2,86.1,214.76,86.38,214,85.89Z"/><path class="cls-1" d="M163.55,173.14a2.43,2.43,0,0,0,.61-.12,6,6,0,0,0,.72-.32c.42-.21.76-.42,1.08-.62a4,4,0,0,0-1,.32Z"/><polygon class="cls-1" points="165.97 172.07 165.98 172.06 165.96 172.08 165.97 172.07"/><path class="cls-1" d="M276.83,130.35l-.5.09A2.75,2.75,0,0,0,276.83,130.35Z"/><path class="cls-1" d="M191.59,160.51l-.06-.46c1.33-.49.56.35,1.75-.2.28-.79,2.07-.68,2.39-1.16,0,.05.62-.15.65.07.08-.39.61-.26,1-.46.11-.13-.14-.07-.28-.14l.86-.37c.39,0,.54.18.17.32,2.39-.53,13.71-3.51,16.32-4.06-.39-.18-1.15.17-1.54-.17.62-.38,1-.14,1.26-.45.41.54,1.54-.2,2.2.3l.12-.39.39.14c2.92-1,.64-.33,3.32-.86,1.53-.4,2.16-1,3.06-1.06-.13,0-.51-.1-.13-.28.13.28,1-.42,1.3-.15.39-.11,1.68-.31,1.16-.64.27.16,1.43,0,.78.34a4,4,0,0,0,1-.2l-.52,0c1.3-.3,2.07-.11,2.85-.64l-.51-.08c.78-.17,1.43-.32,1.81,0l-.78.27a14.93,14.93,0,0,0,3.11-.84l-.38.06c1.28-.71,8.5-2.23,9.71-2.92l-.64-.23,1.07-.44c-.13,0-.37,1.12-.5,1l8.48-1.45c3.67-.56,7.32-1.08,8.44-1.13.91.05.23.49.23.54,1.06-.27.42-.41,1.34-.51.26,0,0,.26-.15.33.39-.1.78,0,.79-.19-.52,0-.36-.48-.61-.7l1.19-.14,0,.26c.27,0,.57-.78,1.76-.81,2-.17,4.1-.56,6.09-.78,0,.16-.42.3-.82.45a2.61,2.61,0,0,1,.92,0c-.51-.2.81-.3.42-.35,1.36-.82,3.32-.53,4.54-1.12,0-.57,1.36-9.85,1.27-10.5a4.31,4.31,0,0,1,.92-.06,2.16,2.16,0,0,0-1.32,0v.36c-.94.26-.26-.18-1.18,0-.09-.28.75-.47,1.5-.6-.68.06-1.39-.05-1.62.3-.65,0,0-.36-.76-.37a4.72,4.72,0,0,1-1.86.46v-.05c-1.56-.09-2.27.76-3.7.66l.14-.11c-.52-.1-1.45.26-2.37.21.26,0,.51.2,0,.31-1,0-1.71.24-2.49.12l-.68.38c-3.58.44-17.65,2.85-21.26,3.52l.13-.07c-5.46.9-16.76,3-22.34,4.48a16,16,0,0,0-3.06.39c.53,0,.4.23,0,.31-2.79.6-.15.23-2.93,1-1.58.56-5.51,1.23-9.35,2.31s-7.66,2-9.12,2.26a10.51,10.51,0,0,1-2.41.94,15.17,15.17,0,0,0-2.38,1l.12-.15c-1.52.75-10.64,3.54-12.39,4.48l.27-.05c-1.46,1-1.42.44-2.71.87.34.36-.88,1.21-1.38,1.48l0-.1c-.73.42-2.3,1.59-3.53,2.23l-.06-.25a25.39,25.39,0,0,1-3.7,1.92,8.57,8.57,0,0,0-1.89.88l-1.75,1.11a19.42,19.42,0,0,0-3,2.33s-1.53.2-1.38.09c0,0,0,.08,0,.08a9.66,9.66,0,0,1,.57,1.26,10.67,10.67,0,0,0,1.28,2.62,17,17,0,0,0,.75,1.67,7.91,7.91,0,0,1,.8,1.66c-.12,1.46,1.71,1.58,2.78,1.37l.08.24.64-.48c.8-.43.9-.88,1-.65l-1,.68c.76-.47.35,0,.15.32a6.33,6.33,0,0,1,.9-.49c.07-.18-.17,0-.31,0a4.58,4.58,0,0,1,1.15-1.13c.66-.47.3.29,1.05-.26l1.45-1,.66-.44c.19-.11,0,0,.22-.09l3-1.23c2.14-.89,4.27-1.81,6.42-2.84.13.05,0,.1-.09.21,1.27-.67,2.38-1.28,3.6-1.79a1.15,1.15,0,0,1,.67.16A19,19,0,0,1,188,161.8l2.42-.89C191.1,160.67,191.56,160.51,191.59,160.51Z"/><path class="cls-1" d="M262.93,48.25c-.35.1-.53.43-.72.74A1.25,1.25,0,0,0,262.93,48.25Z"/><polygon class="cls-1" points="262.2 48.99 262.2 49 262.21 48.98 262.2 48.99"/><path class="cls-1" d="M288,49.85c-.31.07-.43.33-.56.56A.74.74,0,0,0,288,49.85Z"/><polygon class="cls-1" points="287.47 50.41 287.47 50.42 287.47 50.41 287.47 50.41"/><path class="cls-1" d="M298.34,53.2s-8-3.59-10.2-2.82l-.24-.09,0,.26c-.23.28,0,.51-.23.41l.17-.41c-.17.29-.23,0-.32-.13a1,1,0,0,1-.25.32c.07.09.12,0,.18-.05,0,.2.18.5,0,.67s-.4-.1-.55.26a49.09,49.09,0,0,0-2.4,5.7c-.11,0-.09,0-.11-.12-.1.63-.32,1.15-.4,1.73a.78.78,0,0,1-.43.11,11.47,11.47,0,0,1-.89,3.1l.41.2c-.22.58-.55,0-.66.56.52.44-.42.87-.17,1.18,0,0-.17.23-.35.14.29.21,0,.3,0,.5s.11,0,.23,0l0,.43c-.16.11-.37.07-.34-.1a59.85,59.85,0,0,0-3,6.72c.3,0,.27-.43.7-.4.11.37-.24.39-.06.61-.62-.13-.38.56-1,.54l.29.21-.25.06c-.16,1.39.06.35-.47,1.42a.69.69,0,0,0,0,.13c-.17.25-.35.53-.66.58l0,0c-.9.24-.89,1.12-1.73,1.31l0-.12c-.34,0-.68.51-1.22.64.16,0,.38.08.14.27-.6.16-.84.53-1.33.57l-.2.46c-.89.51-3,1.92-5.12,3.15a42.47,42.47,0,0,1-5,2.58l0-.06L262,84l-.19.1a1.47,1.47,0,0,1-.5.12c-.42.06-.69-.3-.88-.53.29-.2.23-.28.32-.38-.13.06-.33.08-.32,0,.09-.35-.21.06-.24-.45a6.72,6.72,0,0,1,.31-1.71,28.45,28.45,0,0,1,.91-2.83,34.56,34.56,0,0,1,2.15-4.66c0-1,.76-1.93.89-2.85l.06.12c.25-1,2.87-5.79,3.2-6.87l-.12.11c.17-1,.53-.69,1-1.34-.47-.1-.36-1-.26-1.28l.09,0c.14-.5.24-1.73.52-2.52l.23.13a9.21,9.21,0,0,1,.85-2.4,14.93,14.93,0,0,0,2-4l1.09-.69V52A38.77,38.77,0,0,0,269,50c-2.24-.9-4.78-1.62-6-1.08l-.23-.11-.11.35c-.3.36-.11.64-.33.53l.27-.54c-.25.38-.25,0-.32-.14a1.5,1.5,0,0,1-.33.42c.06.11.13,0,.21-.07,0,.24.07.62-.15.85-.21.4-.4-.12-.64.35C260,53,258.68,55.25,257.52,58c-.13,0-.09-.06-.1-.16-.27.88-.64,1.6-.88,2.4a.84.84,0,0,1-.49.17c.25,0-1.68,4.26-1.76,4.3l.4.24c-.36.81-.59,0-.83.83.46.55-.62,1.22-.43,1.62,0,0-.23.33-.4.23.27.25-.1.41-.12.68s.12,0,.25,0l-.13.57c-.2.17-.41.14-.34-.1a50.08,50.08,0,0,0-2.27,5.06,31.13,31.13,0,0,0-1.76,5.82c.32-.26.3-.94.76-1,.1.51-.27.73-.08,1-.66.09-.42,1.23-1.12,1.59a3.24,3.24,0,0,1,.31.24l-.26.38c0,1.85,0,2,0,2.2a5.66,5.66,0,0,0-.14,1.86,4.8,4.8,0,0,0,.43,2,6,6,0,0,1,.4,1.39c0-.13.05-.57.26-.2-.25.21.55,1,.34,1.32.16.38.79,1.56.91.92-.11.35.53,1.36,0,.9a3.58,3.58,0,0,0,.66.87l-.22-.5c.84,1.06,1.23,1.8,2.19,2l-.3-.43c.65.49,1.26.73,1.31,1.26l-.8-.31a7.65,7.65,0,0,0,1.58.75,4.35,4.35,0,0,0,1.57.28l-.38-.1a18.83,18.83,0,0,0,5.3-.32c2.26-.52,4.46-1.56,4.61-1.88l-.52-.16.68-.53c-.09,0,0,1.12-.14,1a47.32,47.32,0,0,0,5.32-2.45l.41-.21s0,0,0,.06c.19-.15.52.09.8.11l-.24.46L272,92.1c-.06.1.51.55.18,1-.44.75-.73,1.64-1.13,2.41-.14-.07-.15-.27-.15-.47-.06.1-.09.28-.24.33.33-.08,0,.41.19.3.31.83-.53,1.36-.37,2,.49.26,8.3,4.87,8.91,5.13-.08.15-.16.31-.23.33.16,0,.37-.26.36-.46l-.32-.17c0-.43.24,0,.37-.39.28.1.19.47.08.78.15-.26.47-.45.22-.68.22-.21.31.17.56-.09,0-.26-.12-.66.15-.84l0,0c.54-.5,0-1.12.52-1.56l.06.1c.24-.13.2-.61.52-.89-.1.08-.33.08-.27-.15.35-.33.3-.69.64-.9l-.13-.4c.67-1.4,2.75-7.18,3.33-8.68l0,.08c.83-2.27,2.8-6.8,3.42-9.24.41-.25.57-.75.79-1.1-.2.17-.35,0-.27-.14.48-1.14-.15-.15.2-1.36a44.41,44.41,0,0,1,3.29-7.53c-.13-.78.47-1.46.48-2.18l.06.1c.18-.69,1.85-4.47,2-5.32l-.09.09c0-.78.39-.53.71-1-.46-.08-.51-.76-.47-1l.1,0a12.35,12.35,0,0,1,.06-1.86l.23.1a4.7,4.7,0,0,1,.4-1.75,7.5,7.5,0,0,0,1.22-2.94l.92-.46ZM271.89,91.47l.13-.07a.47.47,0,0,1,0,.09S271.93,91.48,271.89,91.47Z"/><path class="cls-1" d="M346.8,77.61c-.17-.55-2.64-9.74-3-10.3a7.59,7.59,0,0,1,1-.56,3,3,0,0,0-1.39.77l.13.34c-.87.74-.34,0-1.23.61-.21-.21.58-.82,1.32-1.35-.7.43-1.47.69-1.56,1.14-.69.32-.13-.34-.94.06a6.22,6.22,0,0,1-1.72,1.38l0-.06c-1.63.72-2,1.84-3.52,2.44l.09-.17c-.57.16-1.39.93-2.35,1.3.28-.1.6,0,.1.3-1.09.43-1.68,1-2.53,1.22l-.56.65a105.65,105.65,0,0,1-10.44,5.28,39.21,39.21,0,0,1-6.07,2,15.32,15.32,0,0,1-3.71.47l.11,0a5.38,5.38,0,0,1-2.77-.53A4.06,4.06,0,0,1,306,80.23l-.11-.24V79.9a.64.64,0,0,0-.06-.18c0-.18,0-.34,0-.59A7.4,7.4,0,0,1,306,78a2.16,2.16,0,0,1,.44,0c1-.06.1.41,1.27.32,6.17-.44,12.18-1.15,18.63-3.76.19,0,0,.1-.15.22a32.3,32.3,0,0,0,5.44-3,3.87,3.87,0,0,1,1-.26,28,28,0,0,0,4.57-5,20.54,20.54,0,0,0,1.36-2.63c.3-.9.54-1.77.72-2.53a19.47,19.47,0,0,0,.38-2.18l-.44-.22a5.14,5.14,0,0,1,.29-1.91,1.16,1.16,0,0,0,.12-.48,5.34,5.34,0,0,0-.23-1.63,31.81,31.81,0,0,0-2.09-4A7.36,7.36,0,0,0,333.51,48c0-.11-1.87-.69-1.71-.82a2.8,2.8,0,0,1-1.26,0,7.12,7.12,0,0,0-1.46-.09c-.33.1.24.1.51.22a15.8,15.8,0,0,0-2,.2c-.69,0-.9-.21-.15-.34a22.74,22.74,0,0,0-5.38,1.2,43.22,43.22,0,0,0-6.58,2.92c-1.09.59-2.16,1.22-3.19,1.88-.51.34-1,.69-1.52,1l-.77.58-.26.2-.06.05a35.47,35.47,0,0,0-3.64,3c.52-.1,1.25-1,1.84-.89-.58.78-1.12.83-1.28,1.28-.68-.23-1.65,1.25-2.58,1.3l0,.44-.49.17a25.32,25.32,0,0,1-3.18,3.48c-1.4,1.73-1.63,2.91-2.52,3.83.11-.16.58-.43.31.09-.31-.08-.69,1.47-1.11,1.55-.29.52-1.26,2.29-.57,1.88-.36.15-1.19,1.87-.91.76A8.45,8.45,0,0,0,295,73.5l.43-.71c-.77,2-1.39,3.29-1.23,5l.3-.88c-.27,1.42-.16,2.78-.57,3.43l-.13-1.68a12,12,0,0,0,.3,3.54,10,10,0,0,0,.44,1.5c.17.4.37.8.59,1.22l-.23-.64a18.53,18.53,0,0,0,5.71,7.15,13.93,13.93,0,0,0,5.17,2.14,10.44,10.44,0,0,0,3.16.21l-.9-.45a12,12,0,0,0,1.72-.11c-.19,0-.87,1-1.06.88a24.19,24.19,0,0,0,5.05-.16,38.08,38.08,0,0,0,6.92-1.65c4.6-1.5,8.67-3.56,10-4.07,1.08-.34.41.37.42.42,1.16-.72.38-.56,1.41-1.07.3-.09.06.26-.08.38.43-.27.9-.39.86-.54-.61.19-.56-.29-.92-.39l1.32-.66.06.25c.3-.14.4-1,1.72-1.57,2.16-1.09,4.35-2.51,6.42-3.74.05.15-.33.5-.72.84a4.09,4.09,0,0,1,1-.52c-.64.08.76-.69.31-.54C343.55,79.58,345.76,78.82,346.8,77.61ZM327.92,57.39h0S327.93,57.38,327.92,57.39Zm-11.37,7.45,1.32-1a27.35,27.35,0,0,1,2.45-1.57,32.65,32.65,0,0,1,5.08-2.41,15.62,15.62,0,0,1,2.2-.62,1.13,1.13,0,0,1-.28.57c-.55,1.1-2.84,2.43-3.51,2.88a1.55,1.55,0,0,0,.23-.06c-1.29.91-1.28.44-2.5.79.34.36-.9,1.12-1.42,1.35v-.1a31,31,0,0,1-4,1.68v-.26a9.62,9.62,0,0,1-1.89.59c.38-.33.78-.67,1.23-1S316.18,65.1,316.55,64.84Z"/><g id="aperture_alt"><path class="cls-2" d="M234.83,11.08l-12.3,12.3h14a19.77,19.77,0,0,0,.36-3.63A19.42,19.42,0,0,0,234.83,11.08Z"/><path class="cls-2" d="M223.41,18.81,233.54,8.69a19.71,19.71,0,0,0-10.13-7.58Z"/><path class="cls-2" d="M218.1,26l10.12,10.13A19.75,19.75,0,0,0,235.82,26Z"/><path class="cls-2" d="M220.81,14.5V.37A19.86,19.86,0,0,0,217.18,0a19.52,19.52,0,0,0-8.75,2.13Z"/><path class="cls-2" d="M213.54,25.12v14a19.79,19.79,0,0,0,3.64.37,19.44,19.44,0,0,0,8.66-2.09Z"/><path class="cls-2" d="M210.93,20.7,200.82,30.81a19.67,19.67,0,0,0,10.11,7.58Z"/><path class="cls-2" d="M197.79,16.12a19.77,19.77,0,0,0-.37,3.63,19.5,19.5,0,0,0,2.1,8.68l12.31-12.31Z"/><path class="cls-2" d="M206.06,3.44a19.63,19.63,0,0,0-7.53,10.07h17.61Z"/></g></g></g></svg>